<?xml version="1.0" encoding="UTF-8"?>
<svg width="47px" height="48px" viewBox="0 0 47 48" version="1.1" xmlns="http://www.w3.org/2000/svg" xmlns:xlink="http://www.w3.org/1999/xlink">
    <title>Group Copy 3</title>
    <g id="Page-1" stroke="none" stroke-width="1" fill="none" fill-rule="evenodd">
        <g id="Cube---My-Profile2-Copy-22" transform="translate(-19.000000, -16.000000)">
            <g id="Group-Copy-3" transform="translate(19.000000, 16.000000)">
                <path d="M23.280059,5.84954542 C23.9359642,5.86027516 24.5901832,6.03733215 25.2427159,6.38071639 L37.295814,13.3419702 C38.0239662,13.7008956 38.5831371,14.2480534 38.9733266,14.9834437 C39.3635161,15.718834 39.5575992,16.5913344 39.5555761,17.6009448 L39.5677591,29.9314392 C39.6390468,31.2806102 39.4363548,32.3595389 38.9596833,33.1682253 C38.4830118,33.9769116 37.7476789,34.6179468 36.7536847,35.0913308 L25.4525383,41.6034412 C24.6775832,42.0121403 23.9200182,42.210832 23.1798434,42.1995161 C22.4396685,42.1882003 21.702181,41.9666522 20.9673807,41.5348718 L9.07296792,34.6652665 C8.37222217,34.2572253 7.84342478,33.7240091 7.48657575,33.0656178 C7.12972671,32.4072265 6.94798723,31.6294926 6.94135731,30.7324161 L6.90170645,16.827731 C6.89861541,16.2544387 7.07623248,15.6386248 7.43455766,14.9802894 C7.79288284,14.321954 8.34161981,13.7798243 9.08076855,13.3539004 L21.3236562,6.31660577 C21.9720195,5.99450246 22.6241537,5.83881568 23.280059,5.84954542 Z" id="Mask" fill="#D8E8FD" transform="translate(23.241688, 24.024500) rotate(30.000000) translate(-23.241688, -24.024500) "></path>
                <g id="carnival-mask-silhouette-like-cat-face" transform="translate(12.000000, 16.363636)" fill="#1A77F2" fill-rule="nonzero">
                    <path d="M21.9571626,0.543836108 C21.9101665,0.238176697 21.6324917,0.020609475 21.3263406,0.0466274008 C20.5526453,0.110873239 19.8409014,0.25849936 19.1498489,0.498806658 C18.061767,0.87637388 17.0796415,1.42738028 16.2284661,2.13719846 L16.2158464,2.13367478 C15.6249731,1.97523175 15.0141869,1.81138028 14.4005327,1.67625096 C13.4754008,1.47314725 12.524251,1.35489885 11.5736748,1.32515237 C10.704717,1.29790525 9.80339052,1.33920615 8.81286556,1.45204609 C7.80337004,1.56640205 6.79141613,1.78220743 5.80490653,2.09237388 C5.79630218,2.09503713 5.7886402,2.09724968 5.78167478,2.09917542 C5.70095775,2.02308835 5.61970807,1.96838924 5.55210243,1.92295006 C5.52665813,1.9053726 5.50027145,1.88853265 5.47634315,1.86952113 C4.60812292,1.17420743 3.58629449,0.648440461 2.43884251,0.306929577 C1.888,0.142873239 1.3444507,0.0465044814 0.777587708,0.0116773367 C0.483482714,-0.00717029449 0.222074264,0.194827145 0.16434315,0.483113956 C0.156886044,0.520522407 0.148650448,0.55690653 0.140824584,0.592962868 C0.120460948,0.686381562 0.099318822,0.78275032 0.084978233,0.889444302 C-0.0407272727,1.82990013 -0.0267964149,2.79137516 0.125541613,3.74711396 C0.313485275,4.92476312 0.667574904,6.01014085 1.17822279,6.97612292 C0.924271447,7.55830986 0.764517286,8.20953649 0.69109347,8.96217157 C0.542606914,10.4812497 0.822453265,11.9472266 1.52292958,13.3190474 C2.07860691,14.4067196 2.87852497,15.331073 3.90129577,16.0661716 C4.83982586,16.74063 5.72308323,17.0503867 6.78248399,17.3703457 C7.84204866,17.6904277 8.94561844,16.6166863 11.0214802,16.6306581 C12.9792164,16.643114 13.4758515,17.4437695 14.8415672,17.4437695 C14.8415672,17.4437695 14.8914725,17.4325019 14.8908988,17.4325019 C15.6422228,17.2267759 16.3141818,16.9655314 16.9454136,16.633936 C18.0874161,16.0346633 19.0372548,15.2036056 19.7682971,14.1635032 C20.5752625,13.0157644 21.0506735,11.7093367 21.1820333,10.2804814 C21.2854904,9.15126248 21.1363483,8.05760819 20.7358771,7.02152113 L20.8160205,6.84406658 C21.045306,6.33579513 21.2824174,5.81076569 21.4792113,5.26877337 C21.7972036,4.39170294 21.976379,3.45145198 22.0268579,2.3946735 C22.0503355,1.89807939 22.0638976,1.23874008 21.9571626,0.543836108 Z M9.35366965,11.6202202 C9.35366965,11.6202202 7.08793854,11.8504481 5.83272727,10.5952778 C4.57751601,9.33965685 4.80786684,7.07421255 4.80786684,7.07421255 C4.80786684,7.07421255 7.07339309,6.84427145 8.32860435,8.09944174 C9.58397951,9.35461204 9.35366965,11.6202202 9.35366965,11.6202202 Z M16.4405019,10.5952778 C15.1852907,11.8504481 12.9196825,11.6202202 12.9196825,11.6202202 C12.9196825,11.6202202 12.6896594,9.35461204 13.9448297,8.09948271 C15.1998771,6.84427145 17.4654853,7.07425352 17.4654853,7.07425352 C17.4654853,7.07425352 17.6959181,9.34010755 16.4405019,10.5952778 Z" id="Shape"></path>
                </g>
            </g>
        </g>
    </g>
</svg>